<svg width="40" height="40" viewBox="0 0 40 40" fill="none" xmlns="http://www.w3.org/2000/svg">
<g clip-path="url(#clip0_2726_35)">
<path d="M25 5C26.3261 5 27.5979 5.52678 28.5355 6.46447C29.4732 7.40215 30 8.67392 30 10C30.8222 9.99982 31.6318 10.2024 32.3571 10.5899C33.0823 10.9773 33.7008 11.5376 34.1578 12.2212C34.6147 12.9047 34.8961 13.6904 34.9769 14.5087C35.0577 15.3269 34.9354 16.1525 34.621 16.9122C34.3065 17.6719 33.8096 18.3424 33.1741 18.8642C32.5387 19.386 31.7844 19.743 30.978 19.9036C30.1716 20.0643 29.338 20.0236 28.5511 19.7851C27.7642 19.5467 27.0483 19.1179 26.4667 18.5367L18.5367 26.4667C19.109 27.0395 19.5336 27.7427 19.7741 28.5159C20.0146 29.289 20.0637 30.1091 19.9172 30.9054C19.7706 31.7018 19.4329 32.4506 18.933 33.0876C18.4331 33.7246 17.786 34.2306 17.0473 34.5622C16.3086 34.8938 15.5004 35.0411 14.6922 34.9913C13.8841 34.9415 13.1001 34.6962 12.4076 34.2764C11.7152 33.8566 11.1351 33.275 10.7172 32.5815C10.2993 31.888 10.056 31.1033 10.0083 30.295V30H9.71501C8.9064 29.9526 8.12141 29.7095 7.42757 29.2915C6.73373 28.8736 6.15182 28.2933 5.7319 27.6007C5.31197 26.908 5.06661 26.1238 5.01692 25.3153C4.96724 24.5068 5.11471 23.6984 5.44665 22.9595C5.77859 22.2207 6.28507 21.5735 6.92251 21.0737C7.55994 20.574 8.30925 20.2366 9.10597 20.0905C9.90269 19.9445 10.723 19.9942 11.4962 20.2353C12.2695 20.4765 12.9726 20.9019 13.545 21.475L21.475 13.545C20.7755 12.8459 20.299 11.9551 20.1058 10.9852C19.9126 10.0153 20.0113 9.00992 20.3895 8.09615C20.7677 7.18238 21.4084 6.40128 22.2306 5.85165C23.0527 5.30202 24.0194 5.00854 25.0083 5.00833L25 5Z" stroke="url(#paint0_linear_2726_35)" stroke-width="2" stroke-linecap="round" stroke-linejoin="round"/>
</g>
<defs>
<linearGradient id="paint0_linear_2726_35" x1="20.0043" y1="5" x2="20.0043" y2="35.0007" gradientUnits="userSpaceOnUse">
<stop offset="0.280556" stop-color="#55ABC8"/>
<stop offset="1" stop-color="#5E0CE4"/>
</linearGradient>
<clipPath id="clip0_2726_35">
<rect width="40" height="40" fill="white"/>
</clipPath>
</defs>
</svg>
