<svg width="40" height="40" viewBox="0 0 40 40" fill="none" xmlns="http://www.w3.org/2000/svg">
<g clip-path="url(#clip0_2726_24)">
<path d="M36.6667 20.9C33.66 20.325 32.165 19.1 30.795 16C29.9833 17.16 28.9583 18.6133 29.2617 20C29.3083 20.3967 28.7283 21.6667 28.3333 21.6667H5C5 30.3467 10.2733 33.3333 15.3267 33.3333C22.2 33.37 28.3733 31.04 31.75 25C33.66 24.8317 35.5767 22.4917 36.6667 20.9Z" stroke="url(#paint0_linear_2726_24)" stroke-width="2" stroke-linecap="round" stroke-linejoin="round"/>
<path d="M8.33331 16.6667H13.3333V21.6667H8.33331V16.6667Z" stroke="url(#paint1_linear_2726_24)" stroke-width="2" stroke-linecap="round" stroke-linejoin="round"/>
<path d="M13.3333 16.6667H18.3333V21.6667H13.3333V16.6667Z" stroke="url(#paint2_linear_2726_24)" stroke-width="2" stroke-linecap="round" stroke-linejoin="round"/>
<path d="M18.3333 16.6667H23.3333V21.6667H18.3333V16.6667Z" stroke="url(#paint3_linear_2726_24)" stroke-width="2" stroke-linecap="round" stroke-linejoin="round"/>
<path d="M13.3333 11.6667H18.3333V16.6667H13.3333V11.6667Z" stroke="url(#paint4_linear_2726_24)" stroke-width="2" stroke-linecap="round" stroke-linejoin="round"/>
<path d="M18.3333 11.6667H23.3333V16.6667H18.3333V11.6667Z" stroke="url(#paint5_linear_2726_24)" stroke-width="2" stroke-linecap="round" stroke-linejoin="round"/>
<path d="M18.3333 6.66675H23.3333V11.6667H18.3333V6.66675Z" stroke="url(#paint6_linear_2726_24)" stroke-width="2" stroke-linecap="round" stroke-linejoin="round"/>
<path d="M7.61835 30C10.1183 30 11.03 29.8766 12.5483 28.7" stroke="url(#paint7_linear_2726_24)" stroke-width="2" stroke-linecap="round" stroke-linejoin="round"/>
<path d="M16.6667 26.6667V26.6834" stroke="url(#paint8_linear_2726_24)" stroke-width="2" stroke-linecap="round" stroke-linejoin="round"/>
</g>
<defs>
<linearGradient id="paint0_linear_2726_24" x1="20.8333" y1="16" x2="20.8333" y2="33.3338" gradientUnits="userSpaceOnUse">
<stop offset="0.280556" stop-color="#55ABC8"/>
<stop offset="1" stop-color="#5E0CE4"/>
</linearGradient>
<linearGradient id="paint1_linear_2726_24" x1="10.8333" y1="16.6667" x2="10.8333" y2="21.6667" gradientUnits="userSpaceOnUse">
<stop offset="0.280556" stop-color="#55ABC8"/>
<stop offset="1" stop-color="#5E0CE4"/>
</linearGradient>
<linearGradient id="paint2_linear_2726_24" x1="15.8333" y1="16.6667" x2="15.8333" y2="21.6667" gradientUnits="userSpaceOnUse">
<stop offset="0.280556" stop-color="#55ABC8"/>
<stop offset="1" stop-color="#5E0CE4"/>
</linearGradient>
<linearGradient id="paint3_linear_2726_24" x1="20.8333" y1="16.6667" x2="20.8333" y2="21.6667" gradientUnits="userSpaceOnUse">
<stop offset="0.280556" stop-color="#55ABC8"/>
<stop offset="1" stop-color="#5E0CE4"/>
</linearGradient>
<linearGradient id="paint4_linear_2726_24" x1="15.8333" y1="11.6667" x2="15.8333" y2="16.6667" gradientUnits="userSpaceOnUse">
<stop offset="0.280556" stop-color="#55ABC8"/>
<stop offset="1" stop-color="#5E0CE4"/>
</linearGradient>
<linearGradient id="paint5_linear_2726_24" x1="20.8333" y1="11.6667" x2="20.8333" y2="16.6667" gradientUnits="userSpaceOnUse">
<stop offset="0.280556" stop-color="#55ABC8"/>
<stop offset="1" stop-color="#5E0CE4"/>
</linearGradient>
<linearGradient id="paint6_linear_2726_24" x1="20.8333" y1="6.66675" x2="20.8333" y2="11.6667" gradientUnits="userSpaceOnUse">
<stop offset="0.280556" stop-color="#55ABC8"/>
<stop offset="1" stop-color="#5E0CE4"/>
</linearGradient>
<linearGradient id="paint7_linear_2726_24" x1="10.0833" y1="28.7" x2="10.0833" y2="30" gradientUnits="userSpaceOnUse">
<stop offset="0.280556" stop-color="#55ABC8"/>
<stop offset="1" stop-color="#5E0CE4"/>
</linearGradient>
<linearGradient id="paint8_linear_2726_24" x1="17.1667" y1="26.6667" x2="17.1667" y2="26.6834" gradientUnits="userSpaceOnUse">
<stop offset="0.280556" stop-color="#55ABC8"/>
<stop offset="1" stop-color="#5E0CE4"/>
</linearGradient>
<clipPath id="clip0_2726_24">
<rect width="40" height="40" fill="white"/>
</clipPath>
</defs>
</svg>
