<svg width="38" height="38" viewBox="0 0 38 38" fill="none" xmlns="http://www.w3.org/2000/svg">
<path d="M1 5.5C1 4.30653 1.47411 3.16193 2.31802 2.31802C3.16193 1.47411 4.30653 1 5.5 1H32.5C33.6935 1 34.8381 1.47411 35.682 2.31802C36.5259 3.16193 37 4.30653 37 5.5V32.5C37 33.6935 36.5259 34.8381 35.682 35.682C34.8381 36.5259 33.6935 37 32.5 37H5.5C4.30653 37 3.16193 36.5259 2.31802 35.682C1.47411 34.8381 1 33.6935 1 32.5V5.5Z" stroke="white" stroke-width="2" stroke-linecap="round" stroke-linejoin="round"/>
<path d="M10 16.75V28" stroke="white" stroke-width="2" stroke-linecap="round" stroke-linejoin="round"/>
<path d="M10 10V10.0202" stroke="white" stroke-width="2" stroke-linecap="round" stroke-linejoin="round"/>
<path d="M19 28V16.75" stroke="white" stroke-width="2" stroke-linecap="round" stroke-linejoin="round"/>
<path d="M28 28V21.25C28 20.0565 27.5259 18.9119 26.682 18.068C25.8381 17.2241 24.6935 16.75 23.5 16.75C22.3065 16.75 21.1619 17.2241 20.318 18.068C19.4741 18.9119 19 20.0565 19 21.25" stroke="white" stroke-width="2" stroke-linecap="round" stroke-linejoin="round"/>
</svg>
