<svg width="40" height="40" viewBox="0 0 40 40" fill="none" xmlns="http://www.w3.org/2000/svg">
<g clip-path="url(#clip0_2728_49)">
<path d="M21.6667 35C19.2883 33.29 15.6833 28.5766 15 25C14.19 26.2833 12.4983 28.3333 11.6667 28.3333C9.16832 26.8533 10.71 21.7116 11.6667 18.3333C9.00665 15.945 7.55332 14.2366 7.49999 11.6666C1.91665 5.93329 6.75999 2.88329 11.6667 6.66662H13.3333C27.47 7.49996 24.035 20.1166 28.3333 25.8333C32.1583 26.7033 34.4417 29.59 36.6667 31.6666C33.19 31.3333 32.0267 31.0933 30.8333 31.6666C31.63 34.4 34.3717 35.3333 36.6667 36.6666" stroke="url(#paint0_linear_2728_49)" stroke-width="2" stroke-linecap="round" stroke-linejoin="round"/>
<path d="M15 11.6667H15.0167" stroke="url(#paint1_linear_2728_49)" stroke-width="2" stroke-linecap="round" stroke-linejoin="round"/>
</g>
<defs>
<linearGradient id="paint0_linear_2728_49" x1="20.835" y1="4.99414" x2="20.835" y2="36.6666" gradientUnits="userSpaceOnUse">
<stop offset="0.280556" stop-color="#55ABC8"/>
<stop offset="1" stop-color="#5E0CE4"/>
</linearGradient>
<linearGradient id="paint1_linear_2728_49" x1="15.0083" y1="11.6667" x2="15.0083" y2="12.6667" gradientUnits="userSpaceOnUse">
<stop offset="0.280556" stop-color="#55ABC8"/>
<stop offset="1" stop-color="#5E0CE4"/>
</linearGradient>
<clipPath id="clip0_2728_49">
<rect width="40" height="40" fill="white"/>
</clipPath>
</defs>
</svg>
