<svg width="40" height="40" viewBox="0 0 40 40" fill="none" xmlns="http://www.w3.org/2000/svg">
<g clip-path="url(#clip0_2726_6)">
<path d="M15 15V28.4066C14.9999 28.9911 14.8461 29.5652 14.5542 30.0714C14.2622 30.5777 13.8422 30.9983 13.3364 31.291C12.8306 31.5838 12.2567 31.7384 11.6723 31.7394C11.0879 31.7404 10.5135 31.5877 10.0067 31.2966L7.39333 29.7966C6.66208 29.3499 6.05791 28.7227 5.63881 27.9753C5.2197 27.2278 4.99973 26.3852 5 25.5283V14.47C5.00002 13.6133 5.22012 12.7711 5.63921 12.0239C6.0583 11.2768 6.66232 10.6499 7.39333 10.2033L17.3933 4.09163C18.1782 3.61211 19.0802 3.3584 20 3.3584C20.9198 3.3584 21.8218 3.61211 22.6067 4.09163L32.6067 10.2033C33.3379 10.65 33.9421 11.2772 34.3612 12.0247C34.7803 12.7721 35.0003 13.6147 35 14.4716V25.5283C35 26.3849 34.7799 27.2272 34.3608 27.9743C33.9417 28.7215 33.3377 29.3484 32.6067 29.795L22.6067 35.9066C21.8218 36.3862 20.9198 36.6399 20 36.6399C19.0802 36.6399 18.1782 36.3862 17.3933 35.9066" stroke="url(#paint0_linear_2726_6)" stroke-width="2" stroke-linecap="round" stroke-linejoin="round"/>
<path d="M28.3333 15H22.5C21.837 15 21.2011 15.2634 20.7322 15.7322C20.2634 16.2011 20 16.837 20 17.5C20 18.163 20.2634 18.7989 20.7322 19.2678C21.2011 19.7366 21.837 20 22.5 20H25.8333C26.4964 20 27.1323 20.2634 27.6011 20.7322C28.0699 21.2011 28.3333 21.837 28.3333 22.5C28.3333 23.163 28.0699 23.7989 27.6011 24.2678C27.1323 24.7366 26.4964 25 25.8333 25H20" stroke="url(#paint1_linear_2726_6)" stroke-width="2" stroke-linecap="round" stroke-linejoin="round"/>
</g>
<defs>
<linearGradient id="paint0_linear_2726_6" x1="20" y1="3.3584" x2="20" y2="36.6399" gradientUnits="userSpaceOnUse">
<stop offset="0.280556" stop-color="#55ABC8"/>
<stop offset="1" stop-color="#5E0CE4"/>
</linearGradient>
<linearGradient id="paint1_linear_2726_6" x1="24.1667" y1="15" x2="24.1667" y2="25" gradientUnits="userSpaceOnUse">
<stop offset="0.280556" stop-color="#55ABC8"/>
<stop offset="1" stop-color="#5E0CE4"/>
</linearGradient>
<clipPath id="clip0_2726_6">
<rect width="40" height="40" fill="white"/>
</clipPath>
</defs>
</svg>
